<!DOCTYPE svg PUBLIC "-//W3C//DTD SVG 1.1//EN" "http://www.w3.org/Graphics/SVG/1.1/DTD/svg11.dtd">
<!-- Uploaded to: SVG Repo, www.svgrepo.com, Transformed by: SVG Repo Mixer Tools -->
<svg fill="#080325" height="800px" width="800px" version="1.1" id="Capa_1" xmlns="http://www.w3.org/2000/svg" xmlns:xlink="http://www.w3.org/1999/xlink" viewBox="0 0 297.336 297.336" xml:space="preserve" stroke="#080325">
<g id="SVGRepo_bgCarrier" stroke-width="0"/>
<g id="SVGRepo_tracerCarrier" stroke-linecap="round" stroke-linejoin="round"/>
<g id="SVGRepo_iconCarrier"> <g> <path d="M189.872,116.795h-4.356v-16.013l0,0c0-20.317-16.529-36.847-36.847-36.847c-20.317,0-36.847,16.529-36.847,36.847l0,0 v16.013h-4.356c-4.456,0-8.041,3.618-8.041,8.041v0v66.365v0c0,4.436,3.617,8.041,8.041,8.041h82.406 c4.391,0,8.041-3.575,8.041-8.041v0v-66.365v0C197.913,120.42,194.334,116.795,189.872,116.795z M156.481,158.792v13.19 c0,4.314-3.497,7.812-7.812,7.812c-4.315,0-7.812-3.498-7.812-7.812v-13.189c-2.933-2.313-4.822-5.891-4.822-9.916 c0-6.978,5.656-12.634,12.634-12.634c6.977,0,12.634,5.656,12.634,12.634C161.302,152.902,159.413,156.479,156.481,158.792z M165.568,100.782v15.265l0,0h-33.799l0,0v-15.265l0,0c0-9.316,7.579-16.899,16.9-16.899 C157.988,83.883,165.568,91.465,165.568,100.782L165.568,100.782z"/> <path d="M296.43,265.001l-21.524-68.823V26.351c0-11.164-9.051-20.215-20.215-20.215H42.646c-11.164,0-20.215,9.051-20.215,20.215 v169.827L0.906,265.001c-1.901,6.135-0.774,12.807,3.036,17.977c3.81,5.17,9.851,8.222,16.273,8.222h256.906 c6.422,0,12.463-3.052,16.273-8.222C297.204,277.809,298.331,271.136,296.43,265.001z M189.872,219.242h-82.406 c-15.632,0-28.041-12.775-28.041-28.041v-25.023H59.137c-3.703,0-6.706-3.002-6.706-6.706V42.842c0-3.703,3.002-6.706,6.706-6.706 H238.2c3.703,0,6.706,3.002,6.706,6.706v116.63c0,3.703-3.002,6.706-6.706,6.706h-20.287v25.023 C217.913,206.451,205.518,219.242,189.872,219.242z"/> </g> </g>
</svg>